<?xml version="1.0" encoding="utf-8"?>
<!-- Generator: Adobe Illustrator 24.1.2, SVG Export Plug-In . SVG Version: 6.00 Build 0)  -->
<svg version="1.1" id="a4e4594d-31b4-4616-8ba4-ce5de93e7356"
	 xmlns="http://www.w3.org/2000/svg" xmlns:xlink="http://www.w3.org/1999/xlink" x="0px" y="0px" viewBox="0 0 704 745.2"
	 style="enable-background:new 0 0 704 745.2;" xml:space="preserve">
<style type="text/css">
	.st0{fill:#F2F2F2;}
	.st1{fill:#E6E6E6;}
	.st2{fill:#3F3D56;}
	.st3{fill:#FFFFFF;}
	.st4{fill:#CCB696;}
	.st5{fill:#FFD4D4;}
	.st6{fill:#563780;}
	.st7{fill:#2F2E41;}
</style>
<path class="st0" d="M195.9,731.5c-28.1,0-71.8-22.2-111.9-59.4c-4.5-4.2-8.7-8.6-12.7-13.2c-0.6-0.7-0.8-1.6-0.4-2.5
	c0.3-0.9,1.1-1.5,2-1.6l17.5-2.5c0.8-0.1,1.4-0.9,1.3-1.7c-0.1-0.6-0.6-1.2-1.2-1.3l-30-5.3c-0.6-0.1-1.2-0.5-1.6-1
	c-31.6-44.1-48.8-99-53.4-114.7c-0.4-1.3,0.4-2.7,1.7-3.1c0.4-0.1,0.8-0.1,1.2,0c4.8,1,14.9,3.3,28,6.9c0.9,0.2,1.5,0.9,1.7,1.8
	l0.9,3.7c0.2,0.8,1,1.3,1.8,1.1c0.6-0.2,1.1-0.7,1.1-1.4v-0.4c0.1-1.4,1.3-2.4,2.7-2.3c0.2,0,0.4,0,0.5,0.1
	c14.4,4.3,28.5,9.4,42.3,15.3c0.7,0.3,1.3,0.9,1.5,1.7l5.1,20c0.2,0.8,1,1.3,1.8,1.1c0.6-0.2,1.1-0.7,1.1-1.4l0.9-13.1
	c0.1-1.4,1.3-2.4,2.7-2.3c0.3,0,0.6,0.1,0.9,0.2c22.9,10.9,41.7,23.2,56.1,36.5c54,50.1,81.3,108.6,61.1,130.5
	C213.5,728.8,205.6,731.5,195.9,731.5z"/>
<path class="st0" d="M202.6,731.1c-28,0-63.7-48.6-82.5-114.3c-1.7-5.9-3-11.8-4.1-17.8c-0.2-0.9,0.2-1.8,0.9-2.4
	c0.7-0.6,1.7-0.7,2.5-0.3l16.3,6.9c0.8,0.3,1.6,0,2-0.8c0.3-0.6,0.1-1.3-0.4-1.7l-23-20c-0.5-0.4-0.8-1-0.9-1.7
	c-4.3-54.1,9.3-110,13.6-125.8c0.4-1.3,1.7-2.1,3.1-1.8c0.4,0.1,0.8,0.3,1.1,0.6c3.6,3.4,11.1,10.5,20.4,20.4
	c0.6,0.7,0.8,1.6,0.6,2.4l-1.1,3.6c-0.2,0.8,0.2,1.6,1,1.9c0.6,0.2,1.3,0,1.7-0.6l0.2-0.3c0.8-1.1,2.4-1.4,3.5-0.6
	c0.2,0.1,0.3,0.2,0.4,0.4c10,11.1,19.5,22.8,28.3,34.9c0.5,0.6,0.6,1.5,0.4,2.2l-6,19.7c-0.2,0.8,0.2,1.6,1,1.9
	c0.6,0.2,1.3,0,1.7-0.6l7.5-10.7c0.5-0.7,1.3-1.1,2.1-1.1s1.6,0.4,2,1.1c13.9,21.2,23.7,41.4,29.2,60.3
	c20.3,70.8,13.5,135-15.2,143.2C206.8,730.9,204.7,731.2,202.6,731.1z"/>
<ellipse class="st1" cx="352" cy="727.2" rx="352" ry="18"/>
<path class="st2" d="M557.7,172.9h-4V63.4c0-35-28.4-63.4-63.4-63.4H258.2c-35,0-63.4,28.4-63.4,63.4v601c0,35,28.4,63.4,63.4,63.4
	h232.1c35,0,63.4-28.4,63.4-63.4V250.9h4V172.9z"/>
<path class="st3" d="M540.2,63.8v600.1c0,26.2-21.2,47.3-47.3,47.3H259.6c-26.2,0-47.3-21.2-47.4-47.3V63.8
	c0-26.2,21.2-47.3,47.4-47.3h28.3c-4.7,11.5,0.8,24.6,12.4,29.3c2.7,1.1,5.6,1.7,8.5,1.7h133c12.4,0,22.5-10.1,22.5-22.5
	c0-2.9-0.6-5.8-1.7-8.5h30.3C519,16.5,540.2,37.7,540.2,63.8z"/>
<path class="st1" d="M505.1,132.7H247.3c-9.1,0-16.5,7.4-16.5,16.5v300c0,9.1,7.4,16.5,16.5,16.5h257.9c5.8,0,11.2-3,14.1-8
	c0.3-0.4,0.5-0.9,0.7-1.3c0.8-1.8,1.4-3.7,1.5-5.6c0.1-0.5,0.1-1,0.1-1.5v-300C521.6,140.1,514.2,132.7,505.1,132.7z"/>
<circle class="st2" cx="376.2" cy="590.2" r="57"/>
<circle class="st4" cx="378.3" cy="189.3" r="62"/>
<path class="st5" d="M521.6,413.2v37.5c-0.2,1.9-0.7,3.8-1.5,5.6c-0.2,0.5-0.5,0.9-0.7,1.3l-10.1-9.3l-56.3-52l0,0l-49.9-46
	l34.7-26.9l39.9,42.7L521.6,413.2z"/>
<circle class="st5" cx="376.7" cy="211.7" r="46.1"/>
<path class="st6" d="M408,466.2H282.8l0.2-0.6c6-19.4,9.1-50.4,9.3-92.3c0.1-12.4-0.2-25.7-0.6-39.6c-0.8-25.3-2.4-48.1-3.5-62.8
	c-0.8-10.1,6.8-18.8,16.8-19.6c0.3,0,0.6,0,0.9,0c8.8-0.2,17.5,1.7,25.5,5.5c11.5,5.5,23.6,9.7,36.1,12.3
	c23.3,4.8,45.1,15,63.7,29.9l1.4,1.1c21.2,17.1,37.1,39.9,45.7,65.8l0.1,0.3l-22.8,30.1c-0.6,0.8-1.7,1.2-2.7,0.9l-0.3-0.1
	l-22.4-6.9c-16.7,33.7-3.1,53.3-0.2,56.9c0.2,0.3,0.3,0.4,0.3,0.4l0.3,0.3l-0.3,0.3c-6.3,7.3-13.8,13.4-22.1,18.2L408,466.2z"/>
<path class="st7" d="M521.6,450.4v0.3c-0.2,1.9-0.7,3.8-1.5,5.6c-0.2,0.5-0.5,0.9-0.7,1.3c-3,5-8.3,8-14.1,8H331.5l92.8-18.1
	c0,0,1.9-0.2,5.3-0.4c13.2-0.9,48.8-2.8,79.6,1.2C513.4,449,517.6,449.6,521.6,450.4z"/>
<path class="st4" d="M422.7,182.3c-18,11-38.3,17.7-59.4,19.6l6.3-7.5c-4.6,1.4-9.4,2.9-14.2,2.8s-9.9-1.9-12.7-5.9
	c-2.6-3.8-2.7-9-1-13.4s5-7.9,8.6-10.8c13.5-10.7,31.4-13.9,47.8-8.5c5.4,1.8,10.7,4.7,14.3,9.2s5.3,10.7,3.5,16.1L422.7,182.3z"/>
<path class="st4" d="M372.4,134.2c14.6-14.8,32.2-26.1,51.6-33.4c12.5-4.6,26-7.5,39.1-4.9s25.4,11.6,29,24.4
	c3,10.5-0.1,21.7-4.7,31.6s-10.8,19-14.5,29.2c-12.6,34.6,5.1,72.8,39.7,85.4c8.7,3.2,18,4.5,27.3,3.9c-12.8,1.7-24.6,7.7-37.1,10.9
	s-27.3,3-36.6-6c-9.8-9.5-10-24.9-9.6-38.6l2.1-60.9c0.4-10.4,0.7-21.1-3.1-30.7S443,127,432.6,127c-7.9,0.1-14.8,4.8-21.1,9.5
	s-13,9.7-20.8,10.4s-16.8-5.1-16.2-12.9L372.4,134.2z"/>
<polygon class="st5" points="306.6,336.7 301.7,377.5 291.3,465.7 257.5,465.7 262.3,358.7 263.7,327.5 292.2,333.7 "/>
<path class="st6" d="M341.4,396.9l-90.7-45.8c-2-1-3-3.4-2.2-5.6l31.4-84.3c1.5-3.9,5.3-7.3,10.7-9.5c7.3-3,16.2-3.3,21.6-0.7
	l0.4,0.2l-2.1,7.3L341.4,396.9z"/>
</svg>
